<?xml version="1.0" encoding="UTF-8" standalone="no"?><!DOCTYPE svg PUBLIC "-//W3C//DTD SVG 1.1//EN" "http://www.w3.org/Graphics/SVG/1.1/DTD/svg11.dtd"><svg width="100%" height="100%" viewBox="0 0 320 58" version="1.1" xmlns="http://www.w3.org/2000/svg" xmlns:xlink="http://www.w3.org/1999/xlink" xml:space="preserve" xmlns:serif="http://www.serif.com/" style="fill-rule:evenodd;clip-rule:evenodd;stroke-linejoin:round;stroke-miterlimit:2;"><g><path d="M104.683,0.334c3.527,-0 6.617,0.715 9.27,2.145c2.654,1.429 4.695,3.415 6.125,5.957c1.43,2.542 2.145,5.434 2.145,8.675c0,3.21 -0.715,6.101 -2.145,8.675c-1.43,2.574 -3.471,4.599 -6.125,6.077c-2.653,1.478 -5.743,2.216 -9.27,2.216l-14.061,0l0,-33.745l14.061,-0Zm-0.953,24.308c2.383,0 4.273,-0.651 5.672,-1.954c1.398,-1.303 2.097,-3.162 2.097,-5.577c-0,-2.415 -0.699,-4.274 -2.097,-5.576c-1.399,-1.303 -3.289,-1.955 -5.672,-1.955l-2.527,0l0,15.062l2.527,0Z" style="fill:#0f67a7;fill-rule:nonzero;"/><path d="M154.873,0.334l-12.107,23.498l0,10.247l-10.581,0l-0,-10.247l-12.107,-23.498l12.107,-0l5.386,11.963l5.386,-11.963l11.916,-0Z" style="fill:#0f67a7;fill-rule:nonzero;"/><path d="M188.666,34.079l-10.581,0l-11.201,-16.968l-0,16.968l-10.582,0l0,-33.745l10.582,-0l11.201,17.254l-0,-17.254l10.581,-0l0,33.745Z" style="fill:#0f67a7;fill-rule:nonzero;"/><path d="M214.118,28.979l-11.248,0l-1.668,5.1l-11.106,0l12.345,-33.745l12.202,-0l12.297,33.745l-11.153,0l-1.669,-5.1Zm-2.573,-7.959l-3.051,-9.39l-3.05,9.39l6.101,-0Z" style="fill:#0f67a7;fill-rule:nonzero;"/><path d="M268.931,0.334l0,33.745l-10.533,0l-0,-16.825l-5.196,16.825l-9.056,0l-5.195,-16.825l0,16.825l-10.581,0l-0,-33.745l12.964,-0l7.436,20.257l7.245,-20.257l12.916,-0Z" style="fill:#0f67a7;fill-rule:nonzero;"/><rect x="272.744" y="0.334" width="10.581" height="33.746" style="fill:#0f67a7;fill-rule:nonzero;"/><path d="M286.186,17.159c-0,-3.337 0.675,-6.308 2.025,-8.913c1.351,-2.606 3.281,-4.632 5.791,-6.077c2.511,-1.446 5.466,-2.169 8.866,-2.169c2.923,0 5.537,0.548 7.84,1.644c2.304,1.097 4.179,2.646 5.625,4.648c1.446,2.001 2.407,4.337 2.883,7.006l-11.153,0c-0.508,-1.112 -1.231,-1.978 -2.169,-2.598c-0.937,-0.619 -2.009,-0.929 -3.217,-0.929c-1.779,0 -3.185,0.667 -4.218,2.002c-1.033,1.334 -1.549,3.13 -1.549,5.386c-0,2.256 0.516,4.051 1.549,5.386c1.033,1.334 2.439,2.002 4.218,2.002c1.208,-0 2.28,-0.31 3.217,-0.93c0.938,-0.619 1.661,-1.485 2.169,-2.597l11.153,-0c-0.476,2.669 -1.437,5.004 -2.883,7.006c-1.446,2.002 -3.321,3.551 -5.625,4.647c-2.303,1.097 -4.917,1.645 -7.84,1.645c-3.4,-0 -6.355,-0.723 -8.866,-2.169c-2.51,-1.446 -4.44,-3.471 -5.791,-6.077c-1.35,-2.606 -2.025,-5.577 -2.025,-8.913Z" style="fill:#0f67a7;fill-rule:nonzero;"/></g><g><path d="M108.511,37.366l0,19.277l-6.045,0l0,-7.515l-5.745,0l0,7.515l-6.044,0l-0,-19.277l6.044,-0l0,6.943l5.745,0l0,-6.943l6.045,-0Z" style="fill:#0f67a7;fill-rule:nonzero;"/><path d="M116.734,42.185l-0,2.369l5.99,0l-0,4.547l-5.99,0l-0,2.723l6.807,-0l-0,4.819l-12.852,0l0,-19.277l12.852,-0l-0,4.819l-6.807,0Z" style="fill:#0f67a7;fill-rule:nonzero;"/><path d="M137.645,53.73l-6.426,-0l-0.953,2.913l-6.344,0l7.052,-19.277l6.97,-0l7.025,19.277l-6.371,0l-0.953,-2.913Zm-1.471,-4.547l-1.742,-5.364l-1.743,5.364l3.485,-0Z" style="fill:#0f67a7;fill-rule:nonzero;"/><path d="M155.479,56.643l-3.621,-6.916l-0.028,0l0,6.916l-6.044,0l-0,-19.277l8.985,-0c1.561,-0 2.895,0.277 4.003,0.83c1.107,0.554 1.937,1.307 2.491,2.26c0.554,0.953 0.83,2.029 0.83,3.227c0,1.289 -0.358,2.432 -1.075,3.431c-0.717,0.998 -1.747,1.715 -3.091,2.151l4.194,7.378l-6.644,0Zm-3.649,-10.945l2.397,-0c0.58,-0 1.016,-0.132 1.306,-0.395c0.291,-0.263 0.436,-0.676 0.436,-1.239c0,-0.508 -0.15,-0.908 -0.449,-1.198c-0.3,-0.29 -0.731,-0.436 -1.293,-0.436l-2.397,0l0,3.268Z" style="fill:#0f67a7;fill-rule:nonzero;"/><rect x="162.667" y="37.366" width="6.045" height="19.277" style="fill:#0f67a7;fill-rule:nonzero;"/><path d="M188.833,56.643l-6.045,0l-6.398,-9.693l-0,9.693l-6.045,0l0,-19.277l6.045,-0l6.398,9.856l0,-9.856l6.045,-0l0,19.277Z" style="fill:#0f67a7;fill-rule:nonzero;"/><path d="M202.828,43.955c-0.236,-0.381 -0.572,-0.676 -1.007,-0.885c-0.436,-0.209 -0.962,-0.313 -1.58,-0.313c-1.161,0 -2.06,0.377 -2.695,1.13c-0.635,0.753 -0.953,1.783 -0.953,3.09c-0,1.507 0.354,2.632 1.062,3.377c0.708,0.744 1.797,1.116 3.267,1.116c1.398,-0 2.523,-0.563 3.376,-1.688l-4.819,-0l0,-4.275l9.829,0l0,6.045c-0.835,1.434 -1.987,2.663 -3.458,3.689c-1.47,1.026 -3.33,1.538 -5.581,1.538c-1.997,0 -3.735,-0.413 -5.214,-1.238c-1.48,-0.826 -2.614,-1.984 -3.404,-3.472c-0.789,-1.488 -1.184,-3.186 -1.184,-5.092c-0,-1.906 0.395,-3.603 1.184,-5.091c0.79,-1.489 1.92,-2.646 3.39,-3.472c1.47,-0.826 3.195,-1.239 5.173,-1.239c2.523,0 4.579,0.608 6.167,1.825c1.589,1.216 2.528,2.868 2.818,4.955l-6.371,0Z" style="fill:#0f67a7;fill-rule:nonzero;"/><path d="M215.571,46.977c-0,-1.906 0.385,-3.603 1.157,-5.091c0.771,-1.489 1.874,-2.646 3.308,-3.472c1.434,-0.826 3.122,-1.239 5.064,-1.239c1.67,0 3.163,0.313 4.479,0.94c1.316,0.626 2.387,1.511 3.213,2.654c0.826,1.144 1.375,2.478 1.648,4.003l-6.372,-0c-0.29,-0.635 -0.703,-1.13 -1.239,-1.484c-0.535,-0.354 -1.148,-0.531 -1.837,-0.531c-1.017,0 -1.82,0.381 -2.41,1.144c-0.59,0.762 -0.885,1.788 -0.885,3.076c0,1.289 0.295,2.315 0.885,3.077c0.59,0.763 1.393,1.144 2.41,1.144c0.689,-0 1.302,-0.177 1.837,-0.531c0.536,-0.354 0.949,-0.849 1.239,-1.484l6.372,-0c-0.273,1.525 -0.822,2.859 -1.648,4.002c-0.826,1.144 -1.897,2.029 -3.213,2.655c-1.316,0.626 -2.809,0.939 -4.479,0.939c-1.942,0 -3.63,-0.413 -5.064,-1.238c-1.434,-0.826 -2.537,-1.984 -3.308,-3.472c-0.772,-1.488 -1.157,-3.186 -1.157,-5.092Z" style="fill:#0f67a7;fill-rule:nonzero;"/><path d="M242.118,42.185l-0,2.369l5.99,0l-0,4.547l-5.99,0l-0,2.723l6.807,-0l-0,4.819l-12.852,0l0,-19.277l12.852,-0l-0,4.819l-6.807,0Z" style="fill:#0f67a7;fill-rule:nonzero;"/><path d="M269.155,56.643l-6.045,0l-6.398,-9.693l-0,9.693l-6.045,0l0,-19.277l6.045,-0l6.398,9.856l0,-9.856l6.045,-0l0,19.277Z" style="fill:#0f67a7;fill-rule:nonzero;"/><path d="M286.472,37.366l-0,4.792l-5.119,0l0,14.485l-6.044,0l-0,-14.485l-5.065,0l0,-4.792l16.228,-0Z" style="fill:#0f67a7;fill-rule:nonzero;"/><path d="M293.606,42.185l-0,2.369l5.99,0l-0,4.547l-5.99,0l-0,2.723l6.807,-0l-0,4.819l-12.852,0l0,-19.277l12.852,-0l-0,4.819l-6.807,0Z" style="fill:#0f67a7;fill-rule:nonzero;"/><path d="M311.848,56.643l-3.621,-6.916l-0.027,0l-0,6.916l-6.045,0l0,-19.277l8.985,-0c1.561,-0 2.896,0.277 4.003,0.83c1.107,0.554 1.938,1.307 2.491,2.26c0.554,0.953 0.831,2.029 0.831,3.227c-0,1.289 -0.359,2.432 -1.076,3.431c-0.717,0.998 -1.747,1.715 -3.09,2.151l4.193,7.378l-6.644,0Zm-3.648,-10.945l2.396,-0c0.581,-0 1.016,-0.132 1.307,-0.395c0.29,-0.263 0.435,-0.676 0.435,-1.239c0,-0.508 -0.149,-0.908 -0.449,-1.198c-0.299,-0.29 -0.731,-0.436 -1.293,-0.436l-2.396,0l-0,3.268Z" style="fill:#0f67a7;fill-rule:nonzero;"/></g><g><g><rect x="0" y="0" width="86.761" height="57.116" style="fill:#0f67a7;"/><path d="M25.642,21.611c-1.129,2.487 1.118,5.786 3.703,4.267c3.692,-2.167 2.793,-8.448 1.516,-11.864c-1.32,-3.53 -3.882,-6.645 -7.436,-8.072c-3.782,-1.52 -8.227,-0.899 -11.676,1.179c-7.112,4.285 -8.74,14.442 -7.683,22.034c0.095,0.683 0.217,1.363 0.371,2.035c1.841,8.024 6.232,15.568 15.921,19.752c9.374,4.048 13.608,-1.585 13.608,-4.624c0,-0 -3.911,6.265 -12.2,2.501c-8.065,-3.662 -12.118,-9.95 -13.835,-15.565c-1.718,-5.615 -4.26,-23.551 9.054,-25.636c10.772,-1.688 10.868,9.125 8.657,13.993Z" style="fill:#fff;fill-rule:nonzero;"/><path d="M59.469,33.781c-0.312,-0 -0.582,-0.201 -0.672,-0.499l-1.236,-4.084c-0.142,-0.469 -0.583,-0.779 -1.073,-0.754c-0.489,0.026 -0.896,0.38 -0.988,0.862l-1.424,7.409l-2.466,-15.678c-0.073,-0.462 -0.465,-0.798 -0.933,-0.8c-0.466,0.002 -0.862,0.331 -0.939,0.792l-3.048,18.319l-2.739,-12.732c-0.076,-0.353 -0.367,-0.617 -0.726,-0.657c-0.358,-0.042 -0.702,0.151 -0.855,0.479l-3.098,6.638l-10.996,0c-0.039,-0.305 -0.066,-0.612 -0.093,-0.912c-0.103,-1.142 -0.336,-2.412 -1.27,-3.077c-0.883,-0.629 -2.103,-0.489 -3.124,-0.124c-1.021,0.365 -1.985,0.928 -3.058,1.086c-1.073,0.158 -2.348,-0.245 -2.732,-1.259c-0.415,-1.099 0.085,-2.357 0.87,-3.231c1.221,-1.358 2.627,-2.622 3.635,-4.145c1.007,-1.523 1.898,-3.275 1.636,-5.082c-0.262,-1.807 -1.656,-3.518 -3.469,-3.731c1.206,0.775 2.621,2.251 2.163,4.26c-0.318,1.399 -1.434,2.542 -2.492,3.51c-1.058,0.968 -2.543,2.044 -3.51,3.103c-1.989,2.179 -3.362,5.064 -2.967,7.989c0.396,2.924 2.064,5.163 4.561,6.736c2.162,1.362 4.763,1.858 7.315,2.012c1.711,0.104 3.483,0.114 5.185,-0.123c1.079,-0.15 1.922,-0.729 1.689,-1.955c-0.156,-0.821 -0.946,-1.319 -1.641,-1.659c-0.635,-0.31 -1.316,-0.577 -1.804,-1.088c-0.24,-0.252 -0.415,-0.542 -0.546,-0.856l11.04,-0c0.324,-0 0.623,-0.191 0.76,-0.485l2.491,-5.337l2.861,13.3c0.1,0.465 0.497,0.785 0.971,0.785c0.008,-0 0.016,-0 0.024,-0c0.485,-0.012 0.878,-0.353 0.958,-0.831l2.93,-17.615l2.526,16.057c0.063,0.404 0.407,0.703 0.816,0.71c0.41,0.011 0.763,-0.28 0.841,-0.682l1.786,-9.299l0.778,2.57c0.277,0.916 1.106,1.531 2.063,1.531l23.336,0l0,-1.453l-23.336,-0Z" style="fill:#fff;fill-rule:nonzero;"/></g></g></svg>