<svg id="Layer_1" data-name="Layer 1" xmlns="http://www.w3.org/2000/svg" viewBox="0 0 283.46 107.67"><defs><style>.cls-1{fill:#c6168d;}.cls-2{fill:#fff;}</style></defs><title>Oticon_Logo_LCT_100mm_rgb_neg</title><path class="cls-1" d="M102.52,16.06h13.53V2.83L102.52,5.21Z" transform="translate(-2.83 -2.83)"/><path class="cls-2" d="M151.76,22.37a26.88,26.88,0,1,0,19.15,45.71l-8.8-8.79a14.44,14.44,0,1,1,0-20.08l8.8-8.79A26.66,26.66,0,0,0,151.76,22.37Z" transform="translate(-2.83 -2.83)"/><path class="cls-2" d="M29.71,22.37A26.88,26.88,0,1,0,56.59,49.25,26.91,26.91,0,0,0,29.71,22.37Zm0,41.33A14.45,14.45,0,1,1,44.16,49.25,14.46,14.46,0,0,1,29.71,63.7Z" transform="translate(-2.83 -2.83)"/><path class="cls-2" d="M65.19,11.83v44.6c0,17.8,15.2,19.73,21.74,19.73a24.77,24.77,0,0,0,4-.31l.3-.06V64.14H88.54c-8.87,0-9.82-6.52-9.82-9.32v-19h12.5V24.2H78.72V9.45Z" transform="translate(-2.83 -2.83)"/><path class="cls-2" d="M201.26,22.37a26.88,26.88,0,1,0,26.88,26.88A26.91,26.91,0,0,0,201.26,22.37Zm0,41.33A14.45,14.45,0,1,1,215.7,49.25,14.46,14.46,0,0,1,201.26,63.7Z" transform="translate(-2.83 -2.83)"/><path class="cls-2" d="M102.52,75.57h13.53V24.2H102.52Z" transform="translate(-2.83 -2.83)"/><path class="cls-2" d="M272.77,75.57H286.3V41.81A17.63,17.63,0,0,0,268.7,24.2H236.88V75.57h13.53V35.82h14.88a7.49,7.49,0,0,1,7.48,7.48Z" transform="translate(-2.83 -2.83)"/><path class="cls-2" d="M6.75,90.26H8.5v16.55H6.75Z" transform="translate(-2.83 -2.83)"/><path class="cls-2" d="M12.6,90.6h2v1.93h-2Zm.11,4.49h1.75v11.72H12.71Z" transform="translate(-2.83 -2.83)"/><path class="cls-2" d="M19.17,96.63h-1.6V95.11h1.6v-1a4.14,4.14,0,0,1,1-3,3.46,3.46,0,0,1,2.51-.9,5.41,5.41,0,0,1,1.93.29V92a5.89,5.89,0,0,0-1.7-.29c-1.36,0-2,.81-2,2.49v.95h3.71v1.5H20.92v10.18H19.17Z" transform="translate(-2.83 -2.83)"/><path class="cls-2" d="M25.88,101v0a5.78,5.78,0,0,1,5.63-6.09C35,94.84,37,97.6,37,101a5.06,5.06,0,0,1,0,.56h-9.3a4.1,4.1,0,0,0,4.13,4,4.83,4.83,0,0,0,3.69-1.66l1.09,1a6.07,6.07,0,0,1-4.83,2.2A5.83,5.83,0,0,1,25.88,101Zm9.32-.68c-.18-2.13-1.41-4-3.74-4-2,0-3.58,1.7-3.81,4Z" transform="translate(-2.83 -2.83)"/><path class="cls-2" d="M39.55,99.08h6.3v1.83h-6.3Z" transform="translate(-2.83 -2.83)"/><path class="cls-2" d="M48.55,101v0a6.11,6.11,0,0,1,10.7-4l-1.16,1.23a4.69,4.69,0,0,0-3.55-1.77,4.33,4.33,0,0,0-4.2,4.53v0a4.37,4.37,0,0,0,4.31,4.55,4.81,4.81,0,0,0,3.58-1.74l1.11,1A6.06,6.06,0,0,1,48.55,101Z" transform="translate(-2.83 -2.83)"/><path class="cls-2" d="M62.22,90.26H64v6.87a4.46,4.46,0,0,1,4-2.29c2.83,0,4.49,1.9,4.49,4.69v7.28H70.72V100c0-2.18-1.18-3.54-3.24-3.54A3.46,3.46,0,0,0,64,100.1v6.71H62.22Z" transform="translate(-2.83 -2.83)"/><path class="cls-2" d="M75.3,103.41v0c0-2.47,2-3.79,5-3.79a12.59,12.59,0,0,1,3.6.5v-.4c0-2.11-1.29-3.2-3.49-3.2a8.16,8.16,0,0,0-3.56.86l-.52-1.43a9.65,9.65,0,0,1,4.26-1,5.15,5.15,0,0,1,3.79,1.29,4.64,4.64,0,0,1,1.2,3.42v7.17H83.91V105a5.13,5.13,0,0,1-4.24,2C77.5,107.06,75.3,105.81,75.3,103.41Zm8.64-.91v-1.13a12.27,12.27,0,0,0-3.45-.5c-2.2,0-3.42.95-3.42,2.42v0c0,1.47,1.36,2.33,2.94,2.33C82.17,105.67,83.94,104.36,83.94,102.5Z" transform="translate(-2.83 -2.83)"/><path class="cls-2" d="M89.31,95.09h1.74v2a4.44,4.44,0,0,1,4-2.29c2.84,0,4.49,1.9,4.49,4.69v7.28H97.81V100c0-2.18-1.18-3.54-3.24-3.54a3.46,3.46,0,0,0-3.52,3.68v6.71H89.31Z" transform="translate(-2.83 -2.83)"/><path class="cls-2" d="M103.13,108.85l.8-1.36a7.49,7.49,0,0,0,4.51,1.49c2.58,0,4.26-1.43,4.26-4.17v-1.38a5.56,5.56,0,0,1-4.6,2.47,5.42,5.42,0,0,1-5.51-5.49v0a5.44,5.44,0,0,1,5.51-5.53,5.52,5.52,0,0,1,4.58,2.35v-2.1h1.74v9.68a5.63,5.63,0,0,1-1.49,4.14,6.15,6.15,0,0,1-4.47,1.57A9.27,9.27,0,0,1,103.13,108.85Zm9.61-8.46v0a4.1,4.1,0,0,0-4.3-4,3.88,3.88,0,0,0-4.06,3.94v.05a4,4,0,0,0,4.06,4A4.13,4.13,0,0,0,112.74,100.39Z" transform="translate(-2.83 -2.83)"/><path class="cls-2" d="M118.37,90.6h2v1.93h-2Zm.11,4.49h1.74v11.72h-1.74Z" transform="translate(-2.83 -2.83)"/><path class="cls-2" d="M124.28,95.09H126v2a4.43,4.43,0,0,1,4-2.29c2.83,0,4.49,1.9,4.49,4.69v7.28h-1.75V100c0-2.18-1.18-3.54-3.24-3.54A3.45,3.45,0,0,0,126,100.1v6.71h-1.75Z" transform="translate(-2.83 -2.83)"/><path class="cls-2" d="M138.11,108.85l.79-1.36a7.53,7.53,0,0,0,4.51,1.49c2.59,0,4.26-1.43,4.26-4.17v-1.38a5.54,5.54,0,0,1-4.6,2.47,5.42,5.42,0,0,1-5.51-5.49v0a5.45,5.45,0,0,1,5.51-5.53,5.51,5.51,0,0,1,4.58,2.35v-2.1h1.75v9.68a5.64,5.64,0,0,1-1.5,4.14,6.11,6.11,0,0,1-4.46,1.57A9.24,9.24,0,0,1,138.11,108.85Zm9.61-8.46v0a4.11,4.11,0,0,0-4.31-4,3.87,3.87,0,0,0-4,3.94v.05a4,4,0,0,0,4,4A4.14,4.14,0,0,0,147.72,100.39Z" transform="translate(-2.83 -2.83)"/><path class="cls-2" d="M158.9,103.36V97.6h-1.46V94.66h1.46V91.55h3.44v3.11h2.86V97.6h-2.86v5.19c0,.8.34,1.18,1.11,1.18a3.51,3.51,0,0,0,1.7-.43v2.77a5.06,5.06,0,0,1-2.72.7C160.32,107,158.9,106.17,158.9,103.36Z" transform="translate(-2.83 -2.83)"/><path class="cls-2" d="M166.81,100.8v0a6,6,0,0,1,6-6.32c4.06,0,5.92,3.15,5.92,6.6,0,.27,0,.59,0,.9h-8.45a2.81,2.81,0,0,0,3,2.38,4,4,0,0,0,2.94-1.24l2,1.74a6.42,6.42,0,0,1-11.31-4Zm8.56-1a2.61,2.61,0,0,0-2.56-2.59c-1.43,0-2.36,1-2.63,2.59Z" transform="translate(-2.83 -2.83)"/><path class="cls-2" d="M180.7,100.8v0a6.24,6.24,0,0,1,6.37-6.32,6,6,0,0,1,4.85,2l-2.11,2.27a3.53,3.53,0,0,0-2.76-1.34,3.1,3.1,0,0,0-3,3.31v0a3.12,3.12,0,0,0,3.08,3.36,3.86,3.86,0,0,0,2.79-1.29l2,2a6.13,6.13,0,0,1-5,2.22A6.2,6.2,0,0,1,180.7,100.8Z" transform="translate(-2.83 -2.83)"/><path class="cls-2" d="M194.23,90.26h3.45v6.12a4.29,4.29,0,0,1,3.56-1.95c2.6,0,4.12,1.72,4.12,4.51v7.87h-3.44V100c0-1.63-.77-2.47-2.09-2.47s-2.15.84-2.15,2.47v6.78h-3.45Z" transform="translate(-2.83 -2.83)"/><path class="cls-2" d="M208.35,94.66h3.45v1.72a4.29,4.29,0,0,1,3.56-1.95c2.61,0,4.12,1.72,4.12,4.51v7.87H216V100c0-1.63-.77-2.47-2.09-2.47s-2.15.84-2.15,2.47v6.78h-3.45Z" transform="translate(-2.83 -2.83)"/><path class="cls-2" d="M221.89,100.8v0a6.58,6.58,0,0,1,13.14,0v0a6.38,6.38,0,0,1-6.59,6.33A6.31,6.31,0,0,1,221.89,100.8Zm9.74,0v0a3.22,3.22,0,0,0-3.19-3.35,3.11,3.11,0,0,0-3.15,3.31v0a3.23,3.23,0,0,0,3.19,3.36A3.11,3.11,0,0,0,231.63,100.8Z" transform="translate(-2.83 -2.83)"/><path class="cls-2" d="M237.69,90.26h3.44v16.55h-3.44Z" transform="translate(-2.83 -2.83)"/><path class="cls-2" d="M243.78,100.8v0a6.58,6.58,0,0,1,13.15,0v0a6.38,6.38,0,0,1-6.6,6.33A6.32,6.32,0,0,1,243.78,100.8Zm9.75,0v0a3.22,3.22,0,0,0-3.2-3.35,3.11,3.11,0,0,0-3.15,3.31v0a3.23,3.23,0,0,0,3.2,3.36A3.11,3.11,0,0,0,253.53,100.8Z" transform="translate(-2.83 -2.83)"/><path class="cls-2" d="M259.49,109.21l1.18-2.59a7.86,7.86,0,0,0,4.1,1.12c2.36,0,3.47-1.14,3.47-3.31v-.59a4.76,4.76,0,0,1-4,2,5.33,5.33,0,0,1-5.39-5.67v0a5.35,5.35,0,0,1,5.39-5.67,4.94,4.94,0,0,1,3.93,1.81V94.66h3.44v9.4a6.53,6.53,0,0,1-1.54,4.79c-1.13,1.13-2.88,1.63-5.24,1.63A11.6,11.6,0,0,1,259.49,109.21Zm8.75-9.07v0a3,3,0,0,0-5.92,0v0a2.77,2.77,0,0,0,2.95,2.81A2.8,2.8,0,0,0,268.24,100.14Z" transform="translate(-2.83 -2.83)"/><path class="cls-2" d="M282.7,94.66h3.58l-4.67,12.44c-.93,2.47-1.92,3.4-4,3.4a5.75,5.75,0,0,1-3.06-.84l1.16-2.49a3.13,3.13,0,0,0,1.47.47,1.16,1.16,0,0,0,1.21-.79l-4.76-12.19h3.65l2.76,8.27Z" transform="translate(-2.83 -2.83)"/></svg>