<?xml version="1.0" encoding="utf-8"?>
<!-- Generator: Adobe Illustrator 22.1.0, SVG Export Plug-In . SVG Version: 6.00 Build 0)  -->
<svg version="1.1" id="Layer_1" xmlns="http://www.w3.org/2000/svg" xmlns:xlink="http://www.w3.org/1999/xlink" x="0px" y="0px"
	 viewBox="0 0 97.4 47" style="enable-background:new 0 0 97.4 47;" xml:space="preserve">
<style type="text/css">
	.st0{fill:#003262;}
	.st1{fill:#FDB913;}
</style>
<path class="st0" d="M26,23.5c-0.5-0.7-1.3-1-2.1-1c-1,0-2,0.5-2,1.6c0,2.5,5.8,1.1,5.8,5.4c0,2.6-2.1,3.9-4.5,3.9
	c-1.5,0.1-3-0.5-4-1.7l1.7-1.6c0.5,0.8,1.5,1.3,2.4,1.3c1,0,2.1-0.6,2.1-1.7c0-2.7-5.8-1.1-5.8-5.5c0-2.5,2.3-3.7,4.5-3.7
	c1.3,0,2.6,0.4,3.5,1.3L26,23.5z M28.2,26.6v-1.8h1.7v-2.4H32v2.4h2.3v1.8H32v3.6c0,0.8,0.2,1.3,1.2,1.3c0.4,0,0.8-0.1,1.1-0.2V33
	c-0.5,0.2-1.1,0.3-1.7,0.3c-2.2,0-2.7-1-2.7-3v-3.8L28.2,26.6z M41,32L41,32c-0.6,0.9-1.6,1.4-2.7,1.3c-1.5,0-3-0.8-3-2.5
	c0-2.7,3.2-2.9,5.3-2.9h0.5v-0.2c0-1-0.8-1.5-1.9-1.5c-0.8,0-1.6,0.3-2.2,0.9l-1.1-1.1c0.9-0.9,2.2-1.4,3.5-1.3
	c3.6,0,3.6,2.6,3.6,3.7v4.8h-1.9L41,32L41,32z M40.9,29.4h-0.4c-1.1,0-3.1,0.1-3.1,1.3c0,0.8,0.8,1.1,1.4,1.1c1.4,0,2.1-0.7,2.1-1.9
	L40.9,29.4z M44.7,24.8h2.1v1.3h0c0.6-1.2,1.9-1.8,3.2-1.4v2c-0.3-0.1-0.7-0.1-1-0.1c-1.1-0.1-2.1,0.8-2.2,1.9c0,0.1,0,0.1,0,0.2
	v4.4h-2.1V24.8z M51.3,20h2.1v8.2l3.2-3.5h2.7l-3.6,3.8l3.8,4.5h-2.7l-3.3-4.3h0v4.3h-2.1L51.3,20L51.3,20z"/>
<path class="st0" d="M61.3,29.7c0.1,1.1,1.1,2,2.2,2c0.9,0,1.7-0.4,2.2-1.1l1.5,1.1c-1.5,2-4.2,2.4-6.2,1s-2.4-4.2-1-6.2
	c0.9-1.2,2.2-1.8,3.6-1.8c2.3,0,3.9,1.6,3.9,4.5v0.6L61.3,29.7L61.3,29.7z M65.5,28.1c0-1.1-0.8-2-1.9-2c-0.1,0-0.2,0-0.2,0
	c-1.1-0.1-2.1,0.8-2.1,2c0,0,0,0,0,0H65.5z M67.9,24.8h2.3l2.3,5.8h0l2.1-5.8h2.1l-3.9,9.8c-0.6,1.5-1.3,2.4-3.2,2.4
	c-0.5,0-1.1-0.1-1.6-0.2l0.2-1.9c0.3,0.1,0.7,0.2,1.1,0.2c1,0,1.3-0.1,1.7-0.9l0.4-1L67.9,24.8z"/>
<g>
	<path class="st1" d="M76.8,16.2V16l-46.3-1.9L27.1,0l-9.2,14.2H0.5l11.6,11.2C12.1,25.3,0,47,0,47c8.5-7.1,15.7-8,15.7-8
		c-3.7-0.3-7.3,0.7-10.4,2.6l9.8-16.8l-9.6-8.6h13.7l7-11.7l2.5,11.7h44.9"/>
</g>
<g>
	<path class="st0" d="M76.8,31.4c0.5,0,1,0.4,1,1s-0.4,1-1,1c-0.5,0-1-0.4-1-1c0,0,0,0,0,0C75.8,31.8,76.3,31.4,76.8,31.4
		C76.8,31.4,76.8,31.4,76.8,31.4z M76.8,33.2c0.4,0,0.8-0.4,0.8-0.8c0,0,0,0,0,0c0-0.5-0.4-0.8-0.8-0.8c0,0,0,0,0,0
		c-0.5,0-0.8,0.4-0.8,0.9C76,32.8,76.4,33.1,76.8,33.2L76.8,33.2z M76.4,31.7h0.4c0.3,0,0.4,0.1,0.4,0.3s-0.1,0.3-0.3,0.3l0.3,0.5
		h-0.2l-0.3-0.5h-0.2v0.5h-0.2L76.4,31.7L76.4,31.7z M76.6,32.3h0.2c0.1,0,0.3,0,0.3-0.2c0-0.1-0.1-0.2-0.2-0.2h-0.2L76.6,32.3
		L76.6,32.3z"/>
</g>
<g>
	<path class="st0" d="M19.4,38.1h0.7v2.5h3.1v-2.5h0.7V44h-0.7v-2.7h-3.1v2.7h-0.7V38.1z M28.4,43.3c-0.4,0.6-1,0.9-1.7,0.8
		c-1.1,0-1.9-0.8-1.9-1.9c0-0.1,0-0.1,0-0.2c-0.1-1.1,0.8-2,1.8-2c0,0,0.1,0,0.1,0c1,0,1.8,0.7,1.8,1.7c0,0.1,0,0.2,0,0.3v0.2h-3.1
		c0,0.7,0.6,1.2,1.3,1.2c0.5,0,0.9-0.2,1.2-0.6L28.4,43.3z M27.8,41.7c0-0.6-0.5-1.1-1.1-1.1c0,0,0,0-0.1,0c-0.6,0-1.2,0.4-1.3,1.1
		H27.8z M29.3,40.6c0.4-0.4,1-0.6,1.5-0.6c0.8-0.1,1.5,0.4,1.6,1.2c0,0.2,0,0.3,0,0.5v1.7c0,0.2,0,0.4,0.1,0.7h-0.6
		c0-0.2,0-0.4,0-0.6c-0.3,0.4-0.8,0.7-1.3,0.7c-0.8,0-1.4-0.4-1.4-1.1c0-1.3,1.5-1.3,2.4-1.3h0.2v-0.1c0-0.6-0.4-0.8-1-0.8
		c-0.4,0-0.8,0.1-1.1,0.4L29.3,40.6z M31.2,42.1c-0.8,0-1.3,0.2-1.3,0.7c0,0.5,0.4,0.7,0.8,0.7c0.6,0,1.1-0.4,1.1-1c0,0,0-0.1,0-0.1
		v-0.2L31.2,42.1z M33.5,41c0-0.4,0-0.7,0-0.9h0.6v0.6c0.2-0.5,0.7-0.8,1.3-0.7c0.1,0,0.2,0,0.2,0l0,0.6c-0.1,0-0.2,0-0.4,0
		c-0.8,0-1.1,0.6-1.1,1.4v1.9h-0.6L33.5,41L33.5,41z M36.7,38.1c0.3,0,0.5,0.2,0.5,0.5c0,0.3-0.2,0.5-0.5,0.5s-0.5-0.2-0.5-0.5
		C36.3,38.3,36.4,38.1,36.7,38.1C36.7,38.1,36.7,38.1,36.7,38.1z M36.4,40.1h0.6v3.8h-0.6V40.1z M38.2,41c0-0.4,0-0.7,0-0.9h0.6
		c0,0.2,0,0.4,0,0.6C39,40.3,39.5,40,40,40c0.8-0.1,1.4,0.5,1.5,1.3c0,0.1,0,0.2,0,0.3V44h-0.6v-2.3c0-0.6-0.3-1.1-0.9-1.1
		c-0.8,0-1.2,0.6-1.2,1.5v1.9h-0.6L38.2,41z M46.4,43.8c0.2,1-0.6,2-1.6,2.1c-0.2,0-0.3,0-0.5,0c-0.7,0-1.4-0.2-1.9-0.7l0.5-0.5
		c0.4,0.4,0.9,0.7,1.4,0.7c1.2,0,1.4-0.7,1.4-1.5v-0.5c-0.3,0.5-0.8,0.7-1.4,0.7c-1.1,0.1-2-0.8-2-1.8c0,0,0-0.1,0-0.1
		c-0.1-1,0.7-2,1.8-2c0.1,0,0.2,0,0.3,0c0.6,0,1.1,0.3,1.4,0.8v-0.7h0.6L46.4,43.8L46.4,43.8z M44.3,43.4c0.7,0,1.4-0.6,1.4-1.3
		c0,0,0-0.1,0-0.1c0-0.7-0.5-1.4-1.2-1.4c0,0-0.1,0-0.1,0c-0.8,0-1.4,0.6-1.4,1.4c0,0,0,0.1,0,0.1C43,42.8,43.6,43.4,44.3,43.4
		L44.3,43.4z"/>
	<g>
		<path class="st0" d="M50.7,39.1h-1.8v-1h4.6v1h-1.8V44h-1L50.7,39.1z M53.8,42.3c0,0.5,0.5,1,1.1,1c0.4,0,0.8-0.2,1.1-0.5l0.7,0.5
			c-0.4,0.5-1,0.8-1.7,0.8c-1.1,0-2.1-0.9-2.2-2c0-1.1,0.9-2.1,2-2.2c0.1,0,0.1,0,0.2,0c1.1,0,1.9,0.8,1.9,2.1v0.3H53.8L53.8,42.3z
			 M55.8,41.6c0-0.5-0.4-0.9-0.9-1c0,0-0.1,0-0.1,0c-0.5,0-1,0.4-1,0.9c0,0,0,0,0,0H55.8z M60.4,41.2c-0.2-0.2-0.5-0.4-0.7-0.4
			c-0.7,0-1.2,0.5-1.2,1.2s0.5,1.2,1.2,1.2c0.3,0,0.6-0.1,0.8-0.4l0.7,0.7c-0.4,0.3-0.9,0.5-1.4,0.6c-1.1,0-2.1-0.9-2.2-2
			c0-1.1,0.9-2.1,2-2.2c0.1,0,0.1,0,0.2,0c0.5,0,1.1,0.2,1.4,0.6L60.4,41.2z M62.7,40.6c0.2-0.4,0.7-0.7,1.2-0.6
			c0.8,0,1.4,0.5,1.5,1.3c0,0.1,0,0.2,0,0.3V44h-1v-2c0-0.4,0-1.2-0.7-1.2c-0.5,0-0.9,0.4-0.9,0.9c0,0,0,0.1,0,0.1V44h-1v-6h1
			L62.7,40.6L62.7,40.6z M66.4,40h1v0.6c0.2-0.5,0.7-0.8,1.2-0.7c0.8,0,1.4,0.5,1.5,1.3c0,0.1,0,0.2,0,0.3v2.5h-1v-2
			c0-0.4,0-1.2-0.7-1.2c-0.5,0-0.9,0.4-0.9,0.9c0,0,0,0.1,0,0.1v2.1h-1L66.4,40L66.4,40z M72.9,39.9c1.1,0,2,1,2,2.1
			c0,1.1-1,2-2.1,2c-1.1,0-2-1-2-2.1c0-1.1,0.9-2.1,2-2.1C72.8,39.9,72.9,39.9,72.9,39.9z M72.9,43.2c0.7,0,1.2-0.5,1.2-1.2
			c0-0.7-0.5-1.2-1.2-1.2c-0.7,0-1.2,0.5-1.2,1.2c0,0,0,0,0,0C71.7,42.6,72.2,43.1,72.9,43.2C72.8,43.2,72.9,43.2,72.9,43.2z
			 M75.7,38h1v6h-1V38z M79.7,39.9c1.1,0,2,1,2,2.1c0,1.1-1,2-2.1,2c-1.1,0-2-1-2-2.1c0-1.1,0.9-2.1,2-2.1
			C79.6,39.9,79.7,39.9,79.7,39.9z M79.7,43.2c0.7,0,1.2-0.5,1.2-1.2c0-0.7-0.5-1.2-1.2-1.2c-0.7,0-1.2,0.5-1.2,1.2c0,0,0,0,0,0
			C78.5,42.6,79,43.1,79.7,43.2C79.6,43.2,79.7,43.2,79.7,43.2z M86.7,40v3.6c0.2,1.1-0.6,2.2-1.8,2.3c-0.2,0-0.3,0-0.5,0
			c-0.7,0-1.4-0.2-2-0.6l0.6-0.8c0.4,0.4,0.9,0.6,1.4,0.6c1,0,1.3-0.5,1.3-1.3v-0.3C85.5,43.8,85,44,84.5,44c-1.1-0.1-2-1-2-2.2
			c0-1.1,0.9-1.9,1.9-2c0.5,0,1.1,0.2,1.4,0.7v-0.6L86.7,40L86.7,40z M83.5,42c0,0.6,0.5,1.1,1.1,1.1c0,0,0,0,0,0
			c0.6,0,1.1-0.4,1.2-1c0,0,0-0.1,0-0.1c0-0.6-0.4-1.1-1.1-1.2c0,0-0.1,0-0.1,0C84,40.8,83.5,41.3,83.5,42
			C83.5,41.9,83.5,41.9,83.5,42z M88.2,38.1c0.3,0,0.6,0.3,0.6,0.6c0,0.3-0.3,0.6-0.6,0.6s-0.6-0.3-0.6-0.6
			C87.6,38.3,87.9,38.1,88.2,38.1L88.2,38.1z M87.7,40h1v3.9h-1V40z M90.6,42.3c0,0.6,0.5,1,1.1,1c0.4,0,0.8-0.2,1.1-0.5l0.7,0.5
			c-0.4,0.5-1,0.8-1.7,0.8c-1.1,0-2.1-0.9-2.2-2c0-1.1,0.9-2.1,2-2.2c0.1,0,0.1,0,0.2,0c1.1,0,1.9,0.8,1.9,2.1v0.3H90.6L90.6,42.3z
			 M92.6,41.6c0-0.5-0.4-0.9-0.9-1c0,0-0.1,0-0.1,0c-0.5,0-1,0.4-1,0.9c0,0,0,0,0,0H92.6z M96.6,41.1c-0.2-0.3-0.5-0.4-0.8-0.4
			c-0.3,0-0.6,0.1-0.6,0.4c0,0.7,2.1,0.1,2.1,1.7c0,1-0.9,1.3-1.7,1.3c-0.6,0-1.1-0.2-1.5-0.6l0.7-0.6c0.2,0.3,0.6,0.5,1,0.5
			c0.3,0,0.7-0.1,0.7-0.5c0-0.8-2.1-0.2-2.1-1.7c0-0.9,0.8-1.3,1.6-1.3c0.5,0,1.1,0.2,1.4,0.6L96.6,41.1z"/>
	</g>
</g>
</svg>
